<svg width="96" height="69" viewBox="0 0 96 69" fill="none" xmlns="http://www.w3.org/2000/svg">
<path d="M5.15625 48C4.375 48 3.98438 47.5703 3.98438 46.7109V15.6797C3.98438 14.8203 4.375 14.3906 5.15625 14.3906H16.4766C20.9922 14.3906 24.2578 15.2344 26.2734 16.9219C28.3047 18.6094 29.3203 20.8359 29.3203 23.6016C29.3203 26.0391 28.5 28.0859 26.8594 29.7422C25.2344 31.3984 22.9141 32.3516 19.8984 32.6016V32.6484C21.4922 33.8359 22.5469 34.7422 23.0625 35.3672C23.5781 35.9766 24.1562 36.8047 24.7969 37.8516L30.0938 46.4531C30.7344 47.4844 30.5938 48 29.6719 48H27C26.2656 48 25.7188 47.6953 25.3594 47.0859L20.4844 38.7188C19.7812 37.5156 18.7734 36.3359 17.4609 35.1797C16.1484 34.0234 14.5156 33.4453 12.5625 33.4453H8.48438V46.7109C8.48438 47.5703 8.09375 48 7.3125 48H5.15625ZM8.48438 29.6016H15.2578C18.3047 29.6016 20.6484 29.2031 22.2891 28.4062C23.9297 27.5938 24.75 25.8984 24.75 23.3203C24.75 21.3516 24 20.0156 22.5 19.3125C21 18.5938 18.9609 18.2344 16.3828 18.2344H8.48438V29.6016ZM37.8281 48C37.0469 48 36.6562 47.5703 36.6562 46.7109V15.6797C36.6562 14.8203 37.0469 14.3906 37.8281 14.3906H39.9844C40.7656 14.3906 41.1562 14.8203 41.1562 15.6797V44.1562H56.6953C57.5547 44.1562 57.9844 44.5078 57.9844 45.2109V46.9453C57.9844 47.6484 57.5547 48 56.6953 48H37.8281Z" fill="#FF5C00"/>
<path d="M66 16.8C66.3183 16.8 66.6235 16.9264 66.8485 17.1515C67.0736 17.3765 67.2 17.6817 67.2 18V22.8C67.2 23.1183 67.0736 23.4235 66.8485 23.6485C66.6235 23.8736 66.3183 24 66 24C65.6817 24 65.3765 23.8736 65.1515 23.6485C64.9264 23.4235 64.8 23.1183 64.8 22.8V18C64.8 17.6817 64.9264 17.3765 65.1515 17.1515C65.3765 16.9264 65.6817 16.8 66 16.8ZM56.664 20.664C56.7755 20.5522 56.9079 20.4636 57.0537 20.4031C57.1995 20.3426 57.3558 20.3115 57.5136 20.3115C57.6714 20.3115 57.8277 20.3426 57.9735 20.4031C58.1193 20.4636 58.2517 20.5522 58.3632 20.664L61.7568 24.06C61.8714 24.1707 61.9628 24.3031 62.0257 24.4495C62.0886 24.5959 62.1217 24.7534 62.1231 24.9127C62.1245 25.0721 62.0941 25.2301 62.0338 25.3775C61.9735 25.525 61.8843 25.659 61.7717 25.7717C61.659 25.8843 61.525 25.9734 61.3775 26.0338C61.2301 26.0941 61.0721 26.1245 60.9127 26.1231C60.7534 26.1217 60.5959 26.0886 60.4495 26.0257C60.3031 25.9628 60.1707 25.8714 60.06 25.7568L56.6664 22.3632C56.4414 22.1382 56.3151 21.833 56.3151 21.5148C56.3151 21.1966 56.4414 20.8914 56.6664 20.6664M75.3384 20.6664C75.4502 20.7779 75.5388 20.9103 75.5993 21.0561C75.6598 21.2019 75.691 21.3582 75.691 21.516C75.691 21.6738 75.6598 21.8301 75.5993 21.9759C75.5388 22.1217 75.4502 22.2541 75.3384 22.3656L71.9376 25.7568C71.8269 25.8714 71.6945 25.9628 71.5481 26.0257C71.4017 26.0886 71.2442 26.1217 71.0849 26.1231C70.9256 26.1245 70.7675 26.0941 70.6201 26.0338C70.4726 25.9734 70.3386 25.8843 70.2259 25.7717C70.1133 25.659 70.0242 25.525 69.9638 25.3775C69.9035 25.2301 69.8731 25.0721 69.8745 24.9127C69.8759 24.7534 69.909 24.5959 69.9719 24.4495C70.0348 24.3031 70.1262 24.1707 70.2408 24.06L73.6344 20.6664C73.8594 20.4414 74.1646 20.3151 74.4828 20.3151C74.801 20.3151 75.1062 20.4414 75.3312 20.6664M52.8 30C52.8 29.6817 52.9264 29.3765 53.1515 29.1515C53.3765 28.9264 53.6817 28.8 54 28.8H58.8C59.1183 28.8 59.4235 28.9264 59.6485 29.1515C59.8736 29.3765 60 29.6817 60 30C60 30.3183 59.8736 30.6235 59.6485 30.8485C59.4235 31.0736 59.1183 31.2 58.8 31.2H54C53.6817 31.2 53.3765 31.0736 53.1515 30.8485C52.9264 30.6235 52.8 30.3183 52.8 30ZM68.736 29.52C68.3858 29.2283 67.9597 29.0423 67.5076 28.9839C67.0555 28.9255 66.5962 28.997 66.1833 29.1901C65.7704 29.3832 65.421 29.6899 65.176 30.0743C64.9311 30.4587 64.8006 30.905 64.8 31.3608V53.2032C64.8 55.4208 67.548 56.4528 69.0072 54.7848L73.8696 49.2264C74.2078 48.8407 74.6245 48.5318 75.0918 48.3203C75.5591 48.1088 76.0663 47.9996 76.5792 48H84.2856C86.5296 48 87.5472 45.192 85.8216 43.7568L68.736 29.52ZM67.2 53.208V31.3608L84.2856 45.6H76.5792C75.7237 45.5999 74.8781 45.7827 74.0991 46.1362C73.3201 46.4897 72.6257 47.0057 72.0624 47.6496L67.2 53.208Z" fill="#FF5C00"/>
</svg>
